<svg width="48" height="48" viewBox="0 0 48 48" fill="none" xmlns="http://www.w3.org/2000/svg">
<path d="M24.2143 27.5385C29.1454 27.5385 33.1428 23.5779 33.1428 18.6923C33.1428 13.8068 29.1454 9.84619 24.2143 9.84619C19.2832 9.84619 15.2857 13.8068 15.2857 18.6923C15.2857 23.5779 19.2832 27.5385 24.2143 27.5385Z" stroke="black" stroke-linecap="round" stroke-linejoin="round"/>
<path d="M8.9642 41.3385C10.5579 38.7465 12.7978 36.6044 15.4685 35.1182C18.1392 33.6316 21.151 32.8509 24.2142 32.8509C27.2775 32.8509 30.2892 33.6316 32.9599 35.1182C35.6307 36.6044 37.8703 38.7465 39.4643 41.3385" stroke="black" stroke-linecap="round" stroke-linejoin="round"/>
<path d="M24.2143 47C37.0354 47 47.4286 36.7027 47.4286 24C47.4286 11.2975 37.0354 1 24.2143 1C11.3934 1 1 11.2975 1 24C1 36.7027 11.3934 47 24.2143 47Z" stroke="black" stroke-linecap="round" stroke-linejoin="round"/>
</svg>
